<svg width="260" height="56" xmlns="http://www.w3.org/2000/svg"><g fill="none" fill-rule="evenodd"><path d="M86.984 1.227c.34 0 1.847.154 2.29.688.458.483.485 2.444.537 2.432.052-.013.143 0 .195.1.053.098.014 1.153.014 1.253 0 .098-.235.073-.235.223 0 .148-.293.75-.293.75 0 .167.088.608.486 1.216 1.37 1.259 2.671 1.3 2.671 1.3 1.304.19 1.9.609 2.65 1.972.75 1.364 1.325 5.873 1.325 5.873.75 1.658.573 2.79.573 3.566s-.904 2.076-1.567 3.965c-.662 1.887-1.457 2.621-1.854 3.23-.398.607-.398 1.195-.398 1.195l-.265 11.746s-.243 4.154-.22 4.258c.022.106-.354 6.251-.354 6.251s-.002.09.153.32-.109.77-.109.77-1.837 1.165-2.422 1.337c-1.126.333-2.024.06-2.2.06-.177 0-.833-.374-.303-.992.893-.834 1.106-.992 1.106-.992s-2.65.042-3.356.021c-.706-.02-.685-.377-.707-.587-.022-.21.31-.42.31-.42s2.075-.44 2.936-1.467c.618-.525.353-1.49.353-2.12 0-.628-3.422-16.108-3.422-16.108s0-.105-.464-.231c-.33-1.447-.261-4.71-.419-5.034-.158-.324-2.006-2.012-1.32-5.197.105-1.253.417-8.371.417-8.371.136-.428 3.147-2.873 3.147-2.873a.577.577 0 0 1 .124-.544c.198-.233-.026-.61-.451-.998-.362-.33-1.009-2.319-1.104-2.526-.096-.207-.232-.894-.191-2.396.286-1.516 2.243-1.663 2.243-1.663l.124-.007zm16.533 26.026s-.033.961.19 1.148c.224.188.383 1.062.383 1.5 0 .437.639 7.9.639 9.493 1.181.406 1.66.22 1.756.656.096.438 1.629 5.59 2.012 6.684.383 1.093 1.054 2.186.926 2.841-.128.657-.766 1.156-1.117 1.343-.352.187-.703 1.093-1.182 1.468-.479.374-.894.437-.894.687 0 .25.223.562 1.086.47.861-.095 1.724-.407 1.724-.407s-.32.656-.064.718c.255.063.958.344 1.596.094.64-.25.927-.594 1.31-1 .383-.405.79-.734.79-.734s.375-.53.008-1.171c-.056-.098-.606-.53-.894-1.155-.287-.625-.543-1.28-.415-1.968.128-.687.703-3.435.735-4.122.032-.687.127-3.935.127-4.091 0-.156 1.47-.469 1.693-.812.223-.344-.064-4.216-.096-5.34-.032-1.125.096-3.155.287-3.248.192-.094.447-.344.703-.156.255.187 1.66.25 1.852.125.191-.125.575-.688.575-.688s1.884-.125 1.915-.405c.033-.282-.925-2.905-1.085-4.03-.16-1.123 0-2.466-.096-2.778-.096-.313-1.054-3.81-1.181-5.154-.128-1.342-.675-5.332-.76-5.667-.09-.349-.236-.953-1.06-1.266-1.592-.603-1.853-.562-1.853-.75 0 0-.023-.261.17-.324.192-.062.367-.035.485.108.12.144.248.207.248.018 0-.188-.193-.61-.22-.807-.028-.197.064-.08.183-.376.12-.297-.064-.431 0-.736.065-.304-.183-3.237-.944-4.07-.761-.835-1.852-1.794-2.879-1.884-1.027-.089-2.925.763-3.484 2.287 0 0-.358.655-.596.852-.238.197-.018 1.659-.027 1.721-.01.063.198.893.206 1.073.01.18-.355 1.166-.665 1.205-.228.028-.085.135.099.216.183.08-.035.153.048.234.082.08.12.357.367.294s.257-.108.403-.08c.147.026.14.433.14.433s-.49-.02-.715.18c-.224.2-.632.818-1.243.977-.612.16-1.774.758-1.794 1.396 0 0-.306 3.47-.428 4.227-.123.758-1.164 7.084-.838 8 0 0 .243.351.35.422.108.07.305.833.53 1.052.224.22.08 1.13.385 1.236.305.106.466.097.538.08m25.69-20.363s-.415.322-.516.571c-.101.25-1.45 1.305-2.913 1.701 0 0-1.75.938-2.01 1.978-.257 1.04-1.004 6.201-1.004 8.092 0 1.891.072 2.77.072 2.858 0 .088.36.572.617.777-.071.982-.1 2.682.029 3.02.13.337 1.836 1.597 2.181 1.612 0 .923.129 7.211.172 7.549.044.336.492 7.393.52 7.803.07.985 1.113 6.454 1.058 6.298-.143-.41.833 3.092.876 3.312.043.22.145 1.569.346 1.906.258.307 1.263.469 1.851.469.588 0 1.736-.279 1.736-.279s.517-.454-.014-1.07c-.531-.615-.875-.982-1.062-1.202-.187-.22-.402-2.316-.445-2.74-.043-.426-.273-1.29-.474-2.405-.2-1.113.054-4.886.155-5.413.1-.528.577-5.668.764-5.99.186-.323.373 1.114.56 2.3.13.807 1.183 3.505 1.14 6.95 0 0 .43 2.226.755 3.136-.085.484-.085 2.623-.23 3.166-.143.542-.277 1.666.01 1.725.11.023.57-.003 1.176.026.383.018.408-.044.39-.212.521.133 1.258.202 2.223.214.738.008 2.188.064 2.475-.046.202-.077.107-.491-.235-.678-.401-.22-.787-.238-1.16-.384-.372-.147-1.32-.85-1.42-1.202-.1-.352-.61-5.462-.524-6.46 0 0 .188-1.463.175-2.042-.03-1.335-.027-2.62.074-2.795.36.065.312.065 1.781.377 0 0 2.238.337 2.74-.425.503-.763.746-3.108.804-4.5.058-1.393.101-1.671.101-1.671s-.66-1.085-2.21-1.774c-1.55-.688-1.992-.564-2.336-.696-.345-.132-.37-.362-.212-.562.192-.245.439-.178.682-.164.244.015.474-.996.402-1.964-.072-.967.316-.981.33-1.07.015-.088-.23-4.001-.502-5.057-.273-1.055-1.492-10.979-1.492-10.979s-.259-1.26-1.55-1.774c-1.292-.513-2.224-.967-2.368-1.07-.144-.102-.416-.425-.416-.645 0-.22.008-.536.152-.624.143-.088.565-1.384.565-1.384s.187-.292.187-.366c0-.073.086-1.378.086-1.524 0-.147.187-.894.187-1.114 0-.22-.273-1.671-2.181-1.98-.722-.115-1.489-.062-1.6.253-.064.18-.269.198-.375.269-.437.292-.6.724-.608.798-.015.147-.273 1.128-.043 1.466.158.498.086.41.086.41s-.172.118-.172.22c0 .103-.044.982-.044.982s.23.367.302.308c.072-.059.157.425.2.484.043.059.245.894.173 1.188" fill="#595A59"/><path d="M10.985 18.689l-2.99.71v25.545c0 2.024-.218 3.446-.708 4.485-.761 1.696-2.773 2.844-4.894 2.844-.598 0-.925 0-2.393-.164l1.033 3.228c.544.054.98.054 1.197.054 2.719 0 4.785-.82 6.417-2.461 1.74-1.75 2.338-3.774 2.338-7.986V18.689zm.598-8.041L9.3 7.913l-2.393 2.735L9.3 13.602l2.284-2.954zm17.506 7.658c-7.341 0-13.378 6.18-13.378 13.674 0 7.603 6.146 14.058 13.378 14.058 7.505 0 13.433-6.236 13.433-14.167 0-7.658-5.82-13.565-13.433-13.565zm.055 3.118c5.655 0 10.115 4.704 10.115 10.666 0 5.852-4.568 10.83-9.952 10.83-5.656 0-10.333-4.923-10.333-10.83 0-5.962 4.46-10.666 10.17-10.666zM50.766 8.132l-2.99.71v20.294c0 1.75 0 3.063.054 3.72.054 2.297.761 4.868 1.849 6.782 2.23 3.938 6.58 6.4 11.365 6.4 7.505 0 13.596-6.29 13.596-14.003 0-7.548-5.982-13.73-13.324-13.73-4.187 0-7.341 1.696-10.55 5.635V8.132zm10.496 13.292c5.493 0 10.115 4.868 10.115 10.556 0 5.962-4.677 10.94-10.278 10.94-5.765 0-10.442-4.813-10.442-10.776 0-5.962 4.732-10.72 10.605-10.72zm92.425-13.292l-2.99.71V45.71l2.99-.766V8.132zm28.946 16.41c-2.284-4.103-5.982-6.236-10.768-6.236-7.559 0-13.323 6.017-13.323 13.948 0 7.439 6.09 13.784 13.215 13.784 3.643 0 6.797-1.149 10.169-3.665V38.38c-3.861 3.282-6.58 4.54-10.006 4.54-3.97 0-7.668-2.407-9.136-6.017l19.849-12.362zm-20.774 9.408c-.109-.93-.217-1.696-.217-2.079 0-5.743 4.676-10.447 10.278-10.447 2.61 0 4.677.765 6.308 2.352L161.859 33.95zm41.663 11.705l2.991-.656V28.753c0-2.57-.054-3.665-.163-4.376-.272-1.477-.87-2.68-1.903-3.665-1.523-1.422-3.916-2.242-6.798-2.242-2.556 0-4.568.383-7.233 1.422l-1.25 3.555c.434-.164.706-.273.87-.273 3.1-1.203 2.23-.875 2.719-1.04 1.631-.437 3.48-.71 4.676-.71 2.121 0 3.97.656 4.895 1.75.87.93 1.142 1.914 1.142 3.993 0 .055 0 .547-.055 1.04v2.132c-1.631-2.133-4.133-3.281-7.178-3.281-5.384 0-9.517 4.157-9.517 9.572 0 5.415 4.024 9.463 9.408 9.463 3.209 0 5.384-1.094 7.396-3.72v3.282zm-6.906-15.753c3.97 0 7.015 2.899 7.015 6.673s-3.045 6.564-7.124 6.564c-3.916 0-6.689-2.735-6.689-6.564 0-3.884 2.882-6.673 6.798-6.673zm39.71-21.77l-2.991.437v15.097c-2.991-3.829-5.928-5.36-10.006-5.36-7.505 0-13.378 6.18-13.378 14.112 0 7.384 5.927 13.62 12.997 13.62 2.447 0 5.112-.82 7.07-2.188 1.087-.766 1.849-1.532 3.317-3.391v5.25l2.991-.765V8.132zm-12.834 13.292c5.819 0 10.115 4.485 10.115 10.611 0 6.236-4.35 10.94-10.115 10.94-5.819 0-10.278-4.65-10.278-10.666 0-6.181 4.46-10.885 10.278-10.885zm36.127-.22c-2.447-2.132-5.003-3.117-8.266-3.117-5.003 0-8.918 3.337-8.918 7.712 0 3.61 2.447 6.181 6.743 7.111l2.665.602c1.794.383 2.882.875 3.48 1.422.87.82 1.414 2.079 1.414 3.282 0 2.735-2.447 4.704-5.819 4.704-2.882 0-5.057-1.04-6.852-3.282l-2.338 2.243c2.12 2.68 5.275 4.157 8.973 4.157 5.384 0 9.299-3.391 9.299-8.04 0-3.884-2.773-6.729-7.45-7.713l-2.121-.383c-3.317-.711-4.731-1.97-4.731-4.321 0-2.516 2.338-4.376 5.492-4.376 2.447 0 4.024.547 6.58 2.352l1.85-2.352z" fill="#7A9943"/></g></svg>